<mxfile host="app.diagrams.net" modified="2023-09-18T04:43:20.622Z" agent="Mozilla/5.0 (Windows NT 10.0; Win64; x64) AppleWebKit/537.36 (KHTML, like Gecko) Chrome/116.0.0.0 Safari/537.36" etag="043uptXT879GLMFQPNn2" version="21.6.1" type="github">
  <diagram name="Halaman-1" id="EVRH7myTxZeotE2CbXcZ">
    <mxGraphModel dx="1257" dy="723" grid="1" gridSize="10" guides="1" tooltips="1" connect="1" arrows="1" fold="1" page="1" pageScale="1" pageWidth="827" pageHeight="1169" math="0" shadow="0">
      <root>
        <mxCell id="0" />
        <mxCell id="1" parent="0" />
        <mxCell id="Ad9V5zWNFAvav9V-upZD-27" value="ALUR PROSES BANK GARANSI" style="shape=table;startSize=40;container=1;collapsible=0;childLayout=tableLayout;fontSize=16;" vertex="1" parent="1">
          <mxGeometry x="40" y="40" width="760" height="480" as="geometry" />
        </mxCell>
        <mxCell id="Ad9V5zWNFAvav9V-upZD-28" value="" style="shape=tableRow;horizontal=0;startSize=0;swimlaneHead=0;swimlaneBody=0;strokeColor=inherit;top=0;left=0;bottom=0;right=0;collapsible=0;dropTarget=0;fillColor=none;points=[[0,0.5],[1,0.5]];portConstraint=eastwest;fontSize=16;" vertex="1" parent="Ad9V5zWNFAvav9V-upZD-27">
          <mxGeometry y="40" width="760" height="40" as="geometry" />
        </mxCell>
        <mxCell id="Ad9V5zWNFAvav9V-upZD-29" value="DEBITUR" style="shape=partialRectangle;html=1;whiteSpace=wrap;connectable=0;strokeColor=inherit;overflow=hidden;fillColor=none;top=0;left=0;bottom=0;right=0;pointerEvents=1;fontSize=16;rowspan=2;colspan=1;" vertex="1" parent="Ad9V5zWNFAvav9V-upZD-28">
          <mxGeometry width="152" height="71" as="geometry">
            <mxRectangle width="152" height="40" as="alternateBounds" />
          </mxGeometry>
        </mxCell>
        <mxCell id="Ad9V5zWNFAvav9V-upZD-30" value="BANK SUMUT" style="shape=partialRectangle;html=1;whiteSpace=wrap;connectable=0;strokeColor=inherit;overflow=hidden;fillColor=none;top=0;left=0;bottom=0;right=0;pointerEvents=1;fontSize=16;rowspan=1;colspan=4;" vertex="1" parent="Ad9V5zWNFAvav9V-upZD-28">
          <mxGeometry x="152" width="608" height="40" as="geometry">
            <mxRectangle width="152" height="40" as="alternateBounds" />
          </mxGeometry>
        </mxCell>
        <mxCell id="Ad9V5zWNFAvav9V-upZD-31" value="" style="shape=partialRectangle;html=1;whiteSpace=wrap;connectable=0;strokeColor=inherit;overflow=hidden;fillColor=none;top=0;left=0;bottom=0;right=0;pointerEvents=1;fontSize=16;" vertex="1" visible="0" parent="Ad9V5zWNFAvav9V-upZD-28">
          <mxGeometry x="304" width="152" height="40" as="geometry">
            <mxRectangle width="152" height="40" as="alternateBounds" />
          </mxGeometry>
        </mxCell>
        <mxCell id="Ad9V5zWNFAvav9V-upZD-32" value="" style="shape=partialRectangle;html=1;whiteSpace=wrap;connectable=0;strokeColor=inherit;overflow=hidden;fillColor=none;top=0;left=0;bottom=0;right=0;pointerEvents=1;fontSize=16;" vertex="1" visible="0" parent="Ad9V5zWNFAvav9V-upZD-28">
          <mxGeometry x="456" width="152" height="40" as="geometry">
            <mxRectangle width="152" height="40" as="alternateBounds" />
          </mxGeometry>
        </mxCell>
        <mxCell id="Ad9V5zWNFAvav9V-upZD-33" value="" style="shape=partialRectangle;html=1;whiteSpace=wrap;connectable=0;strokeColor=inherit;overflow=hidden;fillColor=none;top=0;left=0;bottom=0;right=0;pointerEvents=1;fontSize=16;" vertex="1" visible="0" parent="Ad9V5zWNFAvav9V-upZD-28">
          <mxGeometry x="608" width="152" height="40" as="geometry">
            <mxRectangle width="152" height="40" as="alternateBounds" />
          </mxGeometry>
        </mxCell>
        <mxCell id="Ad9V5zWNFAvav9V-upZD-34" value="" style="shape=tableRow;horizontal=0;startSize=0;swimlaneHead=0;swimlaneBody=0;strokeColor=inherit;top=0;left=0;bottom=0;right=0;collapsible=0;dropTarget=0;fillColor=none;points=[[0,0.5],[1,0.5]];portConstraint=eastwest;fontSize=16;" vertex="1" parent="Ad9V5zWNFAvav9V-upZD-27">
          <mxGeometry y="80" width="760" height="31" as="geometry" />
        </mxCell>
        <mxCell id="Ad9V5zWNFAvav9V-upZD-35" value="" style="shape=partialRectangle;html=1;whiteSpace=wrap;connectable=0;strokeColor=inherit;overflow=hidden;fillColor=none;top=0;left=0;bottom=0;right=0;pointerEvents=1;fontSize=16;" vertex="1" visible="0" parent="Ad9V5zWNFAvav9V-upZD-34">
          <mxGeometry width="152" height="31" as="geometry">
            <mxRectangle width="152" height="31" as="alternateBounds" />
          </mxGeometry>
        </mxCell>
        <mxCell id="Ad9V5zWNFAvav9V-upZD-36" value="PIMPINAN UNIT" style="shape=partialRectangle;html=1;whiteSpace=wrap;connectable=0;strokeColor=inherit;overflow=hidden;fillColor=none;top=0;left=0;bottom=0;right=0;pointerEvents=1;fontSize=16;" vertex="1" parent="Ad9V5zWNFAvav9V-upZD-34">
          <mxGeometry x="152" width="152" height="31" as="geometry">
            <mxRectangle width="152" height="31" as="alternateBounds" />
          </mxGeometry>
        </mxCell>
        <mxCell id="Ad9V5zWNFAvav9V-upZD-37" value="PINSI KREDIT" style="shape=partialRectangle;html=1;whiteSpace=wrap;connectable=0;strokeColor=inherit;overflow=hidden;fillColor=none;top=0;left=0;bottom=0;right=0;pointerEvents=1;fontSize=16;" vertex="1" parent="Ad9V5zWNFAvav9V-upZD-34">
          <mxGeometry x="304" width="152" height="31" as="geometry">
            <mxRectangle width="152" height="31" as="alternateBounds" />
          </mxGeometry>
        </mxCell>
        <mxCell id="Ad9V5zWNFAvav9V-upZD-38" value="SRM/RM/ARM" style="shape=partialRectangle;html=1;whiteSpace=wrap;connectable=0;strokeColor=inherit;overflow=hidden;fillColor=none;top=0;left=0;bottom=0;right=0;pointerEvents=1;fontSize=16;" vertex="1" parent="Ad9V5zWNFAvav9V-upZD-34">
          <mxGeometry x="456" width="152" height="31" as="geometry">
            <mxRectangle width="152" height="31" as="alternateBounds" />
          </mxGeometry>
        </mxCell>
        <mxCell id="Ad9V5zWNFAvav9V-upZD-39" value="OPERASIONAL" style="shape=partialRectangle;html=1;whiteSpace=wrap;connectable=0;strokeColor=inherit;overflow=hidden;fillColor=none;top=0;left=0;bottom=0;right=0;pointerEvents=1;fontSize=16;" vertex="1" parent="Ad9V5zWNFAvav9V-upZD-34">
          <mxGeometry x="608" width="152" height="31" as="geometry">
            <mxRectangle width="152" height="31" as="alternateBounds" />
          </mxGeometry>
        </mxCell>
        <mxCell id="Ad9V5zWNFAvav9V-upZD-40" value="" style="shape=tableRow;horizontal=0;startSize=0;swimlaneHead=0;swimlaneBody=0;strokeColor=inherit;top=0;left=0;bottom=0;right=0;collapsible=0;dropTarget=0;fillColor=none;points=[[0,0.5],[1,0.5]];portConstraint=eastwest;fontSize=16;" vertex="1" parent="Ad9V5zWNFAvav9V-upZD-27">
          <mxGeometry y="111" width="760" height="329" as="geometry" />
        </mxCell>
        <mxCell id="Ad9V5zWNFAvav9V-upZD-41" value="" style="shape=partialRectangle;html=1;whiteSpace=wrap;connectable=0;strokeColor=inherit;overflow=hidden;fillColor=none;top=0;left=0;bottom=0;right=0;pointerEvents=1;fontSize=16;" vertex="1" parent="Ad9V5zWNFAvav9V-upZD-40">
          <mxGeometry width="152" height="329" as="geometry">
            <mxRectangle width="152" height="329" as="alternateBounds" />
          </mxGeometry>
        </mxCell>
        <mxCell id="Ad9V5zWNFAvav9V-upZD-42" value="" style="shape=partialRectangle;html=1;whiteSpace=wrap;connectable=0;strokeColor=inherit;overflow=hidden;fillColor=none;top=0;left=0;bottom=0;right=0;pointerEvents=1;fontSize=16;" vertex="1" parent="Ad9V5zWNFAvav9V-upZD-40">
          <mxGeometry x="152" width="152" height="329" as="geometry">
            <mxRectangle width="152" height="329" as="alternateBounds" />
          </mxGeometry>
        </mxCell>
        <mxCell id="Ad9V5zWNFAvav9V-upZD-43" value="" style="shape=partialRectangle;html=1;whiteSpace=wrap;connectable=0;strokeColor=inherit;overflow=hidden;fillColor=none;top=0;left=0;bottom=0;right=0;pointerEvents=1;fontSize=16;" vertex="1" parent="Ad9V5zWNFAvav9V-upZD-40">
          <mxGeometry x="304" width="152" height="329" as="geometry">
            <mxRectangle width="152" height="329" as="alternateBounds" />
          </mxGeometry>
        </mxCell>
        <mxCell id="Ad9V5zWNFAvav9V-upZD-44" value="" style="shape=partialRectangle;html=1;whiteSpace=wrap;connectable=0;strokeColor=inherit;overflow=hidden;fillColor=none;top=0;left=0;bottom=0;right=0;pointerEvents=1;fontSize=16;" vertex="1" parent="Ad9V5zWNFAvav9V-upZD-40">
          <mxGeometry x="456" width="152" height="329" as="geometry">
            <mxRectangle width="152" height="329" as="alternateBounds" />
          </mxGeometry>
        </mxCell>
        <mxCell id="Ad9V5zWNFAvav9V-upZD-45" value="" style="shape=partialRectangle;html=1;whiteSpace=wrap;connectable=0;strokeColor=inherit;overflow=hidden;fillColor=none;top=0;left=0;bottom=0;right=0;pointerEvents=1;fontSize=16;" vertex="1" parent="Ad9V5zWNFAvav9V-upZD-40">
          <mxGeometry x="608" width="152" height="329" as="geometry">
            <mxRectangle width="152" height="329" as="alternateBounds" />
          </mxGeometry>
        </mxCell>
        <mxCell id="Ad9V5zWNFAvav9V-upZD-46" value="" style="shape=tableRow;horizontal=0;startSize=0;swimlaneHead=0;swimlaneBody=0;strokeColor=inherit;top=0;left=0;bottom=0;right=0;collapsible=0;dropTarget=0;fillColor=none;points=[[0,0.5],[1,0.5]];portConstraint=eastwest;fontSize=16;" vertex="1" parent="Ad9V5zWNFAvav9V-upZD-27">
          <mxGeometry y="440" width="760" height="40" as="geometry" />
        </mxCell>
        <mxCell id="Ad9V5zWNFAvav9V-upZD-47" value="" style="shape=partialRectangle;html=1;whiteSpace=wrap;connectable=0;strokeColor=inherit;overflow=hidden;fillColor=none;top=0;left=0;bottom=0;right=0;pointerEvents=1;fontSize=16;" vertex="1" parent="Ad9V5zWNFAvav9V-upZD-46">
          <mxGeometry width="152" height="40" as="geometry">
            <mxRectangle width="152" height="40" as="alternateBounds" />
          </mxGeometry>
        </mxCell>
        <mxCell id="Ad9V5zWNFAvav9V-upZD-48" value="" style="shape=partialRectangle;html=1;whiteSpace=wrap;connectable=0;strokeColor=inherit;overflow=hidden;fillColor=none;top=0;left=0;bottom=0;right=0;pointerEvents=1;fontSize=16;" vertex="1" parent="Ad9V5zWNFAvav9V-upZD-46">
          <mxGeometry x="152" width="152" height="40" as="geometry">
            <mxRectangle width="152" height="40" as="alternateBounds" />
          </mxGeometry>
        </mxCell>
        <mxCell id="Ad9V5zWNFAvav9V-upZD-49" value="" style="shape=partialRectangle;html=1;whiteSpace=wrap;connectable=0;strokeColor=inherit;overflow=hidden;fillColor=none;top=0;left=0;bottom=0;right=0;pointerEvents=1;fontSize=16;" vertex="1" parent="Ad9V5zWNFAvav9V-upZD-46">
          <mxGeometry x="304" width="152" height="40" as="geometry">
            <mxRectangle width="152" height="40" as="alternateBounds" />
          </mxGeometry>
        </mxCell>
        <mxCell id="Ad9V5zWNFAvav9V-upZD-50" value="" style="shape=partialRectangle;html=1;whiteSpace=wrap;connectable=0;strokeColor=inherit;overflow=hidden;fillColor=none;top=0;left=0;bottom=0;right=0;pointerEvents=1;fontSize=16;" vertex="1" parent="Ad9V5zWNFAvav9V-upZD-46">
          <mxGeometry x="456" width="152" height="40" as="geometry">
            <mxRectangle width="152" height="40" as="alternateBounds" />
          </mxGeometry>
        </mxCell>
        <mxCell id="Ad9V5zWNFAvav9V-upZD-51" value="" style="shape=partialRectangle;html=1;whiteSpace=wrap;connectable=0;strokeColor=inherit;overflow=hidden;fillColor=none;top=0;left=0;bottom=0;right=0;pointerEvents=1;fontSize=16;" vertex="1" parent="Ad9V5zWNFAvav9V-upZD-46">
          <mxGeometry x="608" width="152" height="40" as="geometry">
            <mxRectangle width="152" height="40" as="alternateBounds" />
          </mxGeometry>
        </mxCell>
      </root>
    </mxGraphModel>
  </diagram>
</mxfile>
